# xmcd CD database file
#
# Track frame offsets:
#	150
#	17794
#	37260
#	50746
#
# Disc length: 946 seconds
#
# Revision: 0
# Processed by: cddbd v1.5.1PL0 Copyright (c) Steve Scherf et al.
# Submitted via: CDex 1.51
#
DISCID=3403b004
DTITLE=Wave - CALDES -the Inner Light-
DYEAR=2005
DGENRE=New Age
TTITLE0=CALDES - unconsciousness-
TTITLE1=ADVENTURE -world-
TTITLE2=the DARK -magic-
TTITLE3=WAY -east-
EXTD=YEAR: 2005
EXTT0=
EXTT1=
EXTT2=
EXTT3=
PLAYORDER=
